<?xml version="1.0" encoding="UTF-8" standalone="no"?>
<svg width="163px" height="16px" viewBox="0 0 163 16" version="1.1" xmlns="http://www.w3.org/2000/svg" xmlns:xlink="http://www.w3.org/1999/xlink">
    <!-- Generator: Sketch 41.2 (35397) - http://www.bohemiancoding.com/sketch -->
    <title>Shape</title>
    <desc>Created with Sketch.</desc>
    <defs></defs>
    <g id="Page-1" stroke="none" stroke-width="1" fill="none" fill-rule="evenodd">
        <g id="Artboard" transform="translate(-476.000000, -169.000000)" fill="#020202">
            <g id="logo-splash-top" transform="translate(476.000000, 169.000000)">
                <g id="Layer_1">
                    <g id="Group">
                        <g id="Shape">
                            <path d="M162.1,9.2 L162.1,9.2 C162.1,8.7 161.5,8.2 162,7.6 C161.4,7.5 160.8,7.5 160.3,7.4 C160.1,7.8 159.9,8.1 159.8,8.3 C158.8,8.4 157.9,8.3 157.1,8.6 C155.1,9.4 153,9.8 150.7,9.3 C149.5,9 148.1,9.1 146.8,9 C144.5,8.9 142.1,8.7 139.8,8.6 C138.8,8.6 137.6,8.5 136.7,8.8 C135.6,9.1 134.7,8.6 133.7,8.6 C132.3,8.7 130.8,8.5 129.4,8.5 C127.6,8.5 125.9,8.4 124.1,8.5 C122.3,8.6 120.6,8.4 118.9,8.2 C118.1,8.1 117.4,8.1 116.6,8.1 L116.6,8.1 L115.8,8.1 L115.1,8.1 L115.1,8.1 C110.6,8.1 100.6,8.5 100.5,8.8 C98.5,9.2 96.5,9 94.5,9.1 C92.7,8.2 90.8,8.8 89,8.2 C88.6,8.6 88.2,9 87.8,9.4 C87.6,9 87.4,8.7 87.2,8.3 C85.3,8.3 83.3,8.4 81.4,7.8 C81.6,7.1 82.2,7.3 82.6,7.3 C83.4,7.2 84.2,7.3 84.5,6.4 C84.6,6.2 85,6.1 85.3,6.1 C86.6,6 87.8,5.9 89.1,5.9 C91.1,5.9 93.2,6.4 95.1,6.1 C97.1,5.9 99.1,6.1 101,5.7 C101.1,5.7 111.3,5.5 113.7,5.6 C113.7,5.6 113.7,5.7 113.8,5.7 C114.5,5.6 115.2,5.7 115.9,5.6 C115.4,5.3 115.2,5.2 114.9,5 C115.1,4.6 115.5,4.6 115.9,4.6 C116.2,4.5 116.4,4.1 116.7,4 C116.9,3.9 117.3,3.9 117.6,4.1 C118,4.2 118.4,4.5 118.6,4.7 C118.8,5 118.8,5.4 118.9,5.8 C120.4,5.9 121.8,6 123.1,6 C126,6 128.9,6.1 131.7,6.1 C132,6.1 132.4,6.1 132.2,5.6 C131.6,5 130.6,5.8 130,5.1 C130.8,4.6 130.8,4.6 131.1,4.7 C134.4,5.4 137.3,4.4 140.7,4 C140.3,3.7 140,3.4 139.9,3.4 C139.3,3.6 138.8,3.7 138.1,3.6 C136.4,3.5 134.8,3.1 133.1,3.1 C132.4,3.1 131.6,3.2 130.9,3 C129.9,2.8 129.7,3.9 128.8,3.8 C128.4,3.6 127.9,3.2 127.5,3.2 C125.4,3.2 123.2,2.7 121.2,3.5 C120.9,3.6 120.6,3.5 120.4,3.3 C120.3,3.2 119.9,3.1 119.7,3.2 C118.1,3.7 116.4,3.7 114.7,3.6 C114.3,3.5 113.8,3.5 113.1,3.4 L112.9,3.4 C111.6,3.5 100.8,3.9 100.1,3.9 C98.2,3.9 96.3,3.8 94.3,3.9 C91.9,4 89.5,3.6 87.2,4.3 C87,4.4 86.7,4.4 86.5,4.3 C85.3,3.8 84.2,4 83,4 C82.4,4 81.7,3.8 81.1,3.8 L81.1,3.8 C80.7,4.2 80.4,3.8 80.1,3.5 L80.1,3.6 C79.4,3.5 78.7,3.3 78,3.2 C77.6,3.2 77.2,3.2 76.9,3.4 C75.7,4 62.5,3.3 61,2.9 C61.1,2.5 61.6,2.5 61.2,2 C59.5,2 57.8,1.9 56,1.9 C54,1.9 52,2 50,2 C47.9,2 39.7,0.9 37.6,0.9 C32.2,0.8 26.8,0.7 21.5,0.6 C17.9,0.5 14.3,0.5 10.6,0.4 C7.9,0.2 5.1,0.1 2.4,0 C1.7,0 1.5,0.3 1.3,0.9 C0.9,2.2 0.5,3.6 0,5 C0.2,5.5 0.5,6.1 0.7,6.7 C1.5,9 3.1,10.9 4.9,12.7 C5.3,13.1 5.8,13.2 6.4,13.2 C8.1,13.1 9.7,13 11.4,13.1 C14.4,13.2 17.5,13.5 20.5,13.7 C22.4,13.8 24.3,13.8 26.3,13.7 C28.4,13.6 30.4,13.5 32.5,13.8 C33.4,14 34.4,13.9 35.4,13.9 C37.9,13.9 58.1,14 58.9,13.8 C59.6,13.6 72.2,14.6 72.9,14.5 C74.1,14.4 75.3,14.5 76.5,14.7 C77,14.8 77.6,14.7 78.2,14.6 C79.7,14.2 81.2,13.9 82.9,14.2 C83.2,14.3 83.6,14.2 83.8,14.1 C84.4,13.7 85,13.9 85.6,14 C86.5,14.2 87.4,14.3 88.2,14.4 C90,14.7 91.9,14.8 93.7,14.5 C94.5,14.3 95.3,14.5 96.1,14.4 C96.9,14.4 97.7,14.4 98.5,14.3 C99.3,14.3 100.3,13.8 100.3,14.1 C100.3,14.2 110.4,14.6 113.8,14.8 L113.8,14.9 L114.9,14.9 L114.9,14.9 L114.9,14.9 L118.4,14.9 C119.3,15 120.2,15.2 121.1,15.2 C122,15.2 122.8,15 123.6,14.9 C124.1,14.8 124.7,14.8 125.3,14.8 C126.1,14.8 126.9,14.9 127.7,14.7 C128.4,14.5 128.9,14.6 129.6,14.7 C131.2,14.9 132.8,15.2 134.4,14.9 C136.8,14.4 139.2,14.8 141.5,15 C142.6,15.1 143.7,15.1 144.8,14.8 C146.3,14.5 147.7,14 149.3,14.3 C149.7,14.4 150.1,14.3 150.4,14.1 C151.5,13.4 152.8,13.5 154.1,13.4 C154.5,13.4 154.9,13.4 155.3,13.3 C155.7,13.2 156,13 156.3,12.8 C157.4,12.1 158.6,11.7 159.9,11.5 C160.4,11.4 160.9,11.2 161.5,11 C162.4,10.6 162.4,10.4 162.1,9.2 Z M133.1,3.6 C133.2,3.6 133.2,3.7 133.2,3.7 L133,3.7 L132.9,3.6 L133.1,3.6 Z M126.1,4.7 C126.3,4.6 126.5,4.5 126.7,4.6 C127.2,4.8 127.7,5 128.4,5.2 C127.6,5.3 127.1,5.3 126.5,5.3 C126.4,5.3 126.2,5 126.1,4.8 C126,4.9 126.1,4.7 126.1,4.7 Z M124,4.4 C124.1,4.4 124.1,4.4 124.2,4.5 L124.2,4.6 C124.1,4.5 124,4.5 124,4.4 C124,4.5 124,4.4 124,4.4 Z M120.8,4.7 C121.1,4.8 121.5,4.8 121.9,4.8 C121.3,5.5 120.5,5.3 119.9,5.4 C119.6,5.4 119.6,5.3 119.5,4.4 C119.9,4.5 120.3,4.6 120.8,4.7 Z M97.4,4.8 C97.5,4.9 97.7,4.9 97.8,5 C97.7,5.1 97.6,5.2 97.5,5.2 C97.4,5.2 97.2,5.1 97.1,5 C97.2,5 97.3,4.9 97.4,4.8 Z M78.8,6.8 C78.7,6.7 78.6,6.6 78.6,6.4 C78.8,6.3 79.1,6.2 79.3,6.2 C79.5,6.2 79.7,6.3 80.2,6.4 C79.6,6.6 79.2,6.7 78.8,6.8 Z M122.3,10.7 C122.3,10.7 122.2,10.7 122.2,10.6 L122.2,10.6 L122.1,10.6 C121.9,10.8 121.7,10.9 121.5,11 C121.4,11 121.2,10.8 121,10.7 C121.1,10.6 121.2,10.4 121.3,10.4 C121.6,10.4 121.8,10.5 122.1,10.5 L122.1,10.5 L122.1,10.5 C122.2,10.2 122.4,10.2 122.7,10.3 C122.7,10.3 122.8,10.4 122.8,10.5 C122.7,10.7 122.5,10.7 122.3,10.7 Z M126.5,11.7 C126,11.7 125.5,11.5 125,11.4 C126.2,11.1 126.8,11.1 128.3,11.7 L126.5,11.7 Z M133.3,11.2 C133.7,11.2 134.2,11.1 134.6,11.1 C135,11.1 135.5,11.2 136,11.2 C134.9,12 134.8,12 133.3,11.2 Z M147.4,11.3 C147.3,11.3 147.2,11.2 147.1,11.1 L147.1,11.1 C147.1,11.1 147.1,11.1 147,11.1 C146,11.7 145,11.7 144.1,10.9 L144.1,10.9 C144.1,10.9 144.1,10.9 144,10.9 C144,11.2 144.1,11.6 143.6,11.6 C143.1,11.6 142.7,11.3 142.7,10.7 C143.2,10.8 143.6,10.8 144.1,10.9 C144.1,10.9 144.1,10.9 144.1,10.8 C144.1,10.8 144.2,10.8 144.2,10.9 C145.2,10.5 146.1,10.9 147.1,11.1 L147.2,11.1 L147.2,11.1 C147.3,11 147.3,10.8 147.4,10.8 C149.4,10.7 151.5,10.3 153.5,10.4 L155.3,10.4 C152.5,11.5 149.9,11.5 147.4,11.3 Z"></path>
                        </g>
                    </g>
                </g>
            </g>
        </g>
    </g>
</svg>